<svg width="600" height="254" viewBox="0 0 600 254" fill="none" xmlns="http://www.w3.org/2000/svg">
<path d="M231.95 24.5781C204.11 24.5781 189.62 44.6081 189.62 69.3481C189.62 94.0881 203.46 114.118 231.95 114.118C266.95 114.118 271.83 83.9981 271.83 83.9981H249.04C249.04 83.9981 246.6 97.0181 232.76 97.0181C218.92 97.0181 213.55 87.2481 212.57 74.2281H272.48C272.48 74.2281 272.64 71.2981 272.64 69.3481C272.64 44.6081 259.78 24.5781 231.94 24.5781H231.95ZM213.22 59.5881C215.17 49.1681 220.71 41.6781 231.94 41.6781C243.17 41.6781 247.73 49.1681 249.19 59.5881H213.21H213.22Z" fill="white"/>
<path d="M79.8296 114.169V90.5291C64.3796 90.5291 51.7996 77.9591 51.7996 62.4991V43.1891H79.8296V24.5391H0.139648V43.1891H28.1697V62.4991C28.1697 90.9891 51.3496 114.169 79.8396 114.169H79.8296Z" fill="white"/>
<path d="M134.85 134.26C107.22 134.26 92.8398 154.13 92.8398 178.69C92.8398 203.25 106.57 223.12 134.85 223.12C169.58 223.12 174.43 193.23 174.43 193.23H151.81C151.81 193.23 149.39 206.15 135.65 206.15C121.91 206.15 116.59 196.46 115.62 183.53H175.07C175.07 183.53 175.23 180.62 175.23 178.68C175.23 154.12 162.47 134.25 134.84 134.25L134.85 134.26ZM116.27 168.99C118.2 158.65 123.7 151.22 134.85 151.22C146 151.22 150.52 158.65 151.97 168.99H116.27Z" fill="white"/>
<path d="M476.04 134.26C448.41 134.26 434.03 154.13 434.03 178.69C434.03 203.25 447.76 223.12 476.04 223.12C510.77 223.12 515.62 193.23 515.62 193.23H493C493 193.23 490.58 206.15 476.84 206.15C463.1 206.15 457.78 196.46 456.81 183.53H516.26C516.26 183.53 516.42 180.62 516.42 178.68C516.42 154.12 503.66 134.25 476.03 134.25L476.04 134.26ZM457.46 168.99C459.39 158.65 464.89 151.22 476.04 151.22C487.19 151.22 491.71 158.65 493.16 168.99H457.46Z" fill="white"/>
<path d="M287.96 132.903C270.31 132.903 262.74 149.713 262.74 149.713H261.9L261.73 149.883C258.37 139.623 250.8 132.903 236.68 132.903C219.03 132.903 213.14 149.713 213.14 149.713H212.3V134.603H189.6V222.833H213.13V177.443C213.13 159.793 218.51 152.223 228.6 152.223C237.85 152.223 240.87 158.953 240.87 174.073V222.823H264.4V177.433C264.4 159.783 269.78 152.213 279.86 152.213C289.11 152.213 292.13 158.943 292.13 174.063V222.813H315.66V169.023C315.66 148.853 309.78 132.883 287.92 132.883L287.96 132.903Z" fill="white"/>
<path d="M382.01 133.719C362.68 133.719 355.11 148.009 355.11 148.009H354.27V134.609H331.57V253.919H355.1V214.419H355.94C355.94 214.419 363.51 226.189 382 226.189C407.22 226.189 419.82 204.339 419.82 179.959C419.82 155.579 407.21 133.729 382 133.729L382.01 133.719ZM375.29 208.519C361 208.519 354.28 195.739 354.28 179.939C354.28 164.139 361 151.359 375.29 151.359C389.58 151.359 396.3 164.139 396.3 179.939C396.3 195.739 389.57 208.519 375.29 208.519Z" fill="white"/>
<path d="M0 152.748H27.79V171.888C27.79 200.128 50.77 223.108 79.01 223.108V199.678C63.69 199.678 51.22 187.208 51.22 171.888V152.748H79.01V134.258H0V152.748Z" fill="white"/>
<path d="M533.87 158.27C533.87 149.43 533.85 141.58 533.68 134.13H559.79C559.79 137.45 559.75 147.4 559.75 152.2C563.99 142.03 575.7 133.68 599.99 133.68V155.58C580.67 155.12 560.49 159.93 560.49 184.32V223.11H533.87V158.27Z" fill="white"/>
<path d="M162.81 29.5281C160.21 27.5881 154.25 24.1382 144.28 24.1382C125.61 24.1382 116.29 40.9482 116.29 40.9482H118.5V0.078125H94.4902V114.068H119.38V77.4681C119.38 63.0581 117.97 51.2681 129.09 47.4781C131.14 46.7781 133.37 46.5881 135.53 46.7981C143.54 47.5881 148.72 51.8881 148.72 65.3181V114.068H173.61V68.6781C173.61 56.3981 176.13 39.4581 162.8 29.5181L162.81 29.5281Z" fill="white"/>
</svg>
