<svg width="756" height="347" viewBox="0 0 756 347" fill="none" xmlns="http://www.w3.org/2000/svg">
<path d="M59.8145 2.16016L59.8145 244.629" stroke="#61615E" stroke-width="2.44497" stroke-linecap="round"/>
<path d="M24 139.714L24 142.746L16.2031 138.433C16.2344 138.839 16.25 139.266 16.25 139.714C16.25 141.641 15.6927 143.167 14.5781 144.292C13.4531 145.407 11.9271 145.964 10 145.964C8.07292 145.964 6.55208 145.407 5.4375 144.292C4.3125 143.167 3.75 141.641 3.75 139.714C3.75 137.787 4.3125 136.266 5.4375 135.152C6.55208 134.027 8.07292 133.464 10 133.464C11.7812 133.464 13.1302 133.714 14.0469 134.214L24 139.714ZM13.7969 139.714C13.7969 138.36 13.5208 137.423 12.9687 136.902C12.4167 136.381 11.4271 136.121 10 136.121C8.82292 136.121 7.89583 136.444 7.21875 137.089C6.54167 137.735 6.20312 138.61 6.20312 139.714C6.20312 140.819 6.54167 141.694 7.21875 142.339C7.89583 142.985 8.82292 143.308 10 143.308C11.1771 143.308 12.1042 142.985 12.7812 142.339C13.4583 141.694 13.7969 140.819 13.7969 139.714ZM6.45312 126.558L11.5469 126.558L11.5469 123.714C11.5469 121.787 12.026 120.266 12.9844 119.152C13.9323 118.027 15.2292 117.464 16.875 117.464C18.2083 117.464 19.349 117.662 20.2969 118.058C21.2448 118.444 21.9948 119.016 22.5469 119.777C23.099 120.537 23.5 121.433 23.75 122.464C24 123.485 24.125 124.678 24.125 126.042C24.125 126.709 24.1042 127.35 24.0625 127.964C24.0208 128.579 23.9792 129.027 23.9375 129.308L23.875 129.714L21.5469 129.714L21.5469 126.042C21.5469 124.115 21.1875 122.647 20.4687 121.636C19.75 120.626 18.5521 120.121 16.875 120.121C15.9896 120.121 15.2917 120.444 14.7812 121.089C14.2604 121.725 14 122.6 14 123.714L14 129.214L4 129.214L4 118.214L6.45312 118.214L6.45312 126.558ZM6.5 112.652C4.66666 111.444 3.75 109.798 3.75 107.714C3.75 105.631 4.66666 103.985 6.5 102.777C8.33333 101.569 10.8333 100.964 14 100.964C17.1667 100.964 19.6667 101.569 21.5 102.777C23.3333 103.985 24.25 105.631 24.25 107.714C24.25 109.798 23.3333 111.444 21.5 112.652C19.6667 113.86 17.1667 114.464 14 114.464C10.8333 114.464 8.33333 113.86 6.5 112.652ZM8.29687 104.808C6.90104 105.516 6.20312 106.485 6.20312 107.714C6.20312 108.944 6.90104 109.912 8.29687 110.621C9.69271 111.329 11.5937 111.683 14 111.683C16.4062 111.683 18.3073 111.329 19.7031 110.621C21.099 109.912 21.7969 108.944 21.7969 107.714C21.7969 106.485 21.099 105.516 19.7031 104.808C18.3073 104.1 16.4062 103.746 14 103.746C11.5937 103.746 9.69271 104.1 8.29687 104.808ZM12 109.042L12 106.386L16 106.386L16 109.042L12 109.042Z" fill="#61615E"/>
<path d="M93.4873 283.117H754.625" stroke="#61615E" stroke-width="2.44497" stroke-linecap="round"/>
<path d="M180.974 306.031C180.974 304.458 181.531 303.219 182.646 302.312C183.771 301.396 185.297 300.938 187.224 300.938C189.151 300.938 190.672 301.396 191.787 302.312C192.912 303.219 193.474 304.458 193.474 306.031C193.474 306.521 193.344 307 193.084 307.469C192.834 307.938 192.526 308.333 192.162 308.656C191.797 308.969 191.433 309.255 191.068 309.516C190.703 309.766 190.391 309.948 190.13 310.062L189.755 310.25C189.87 310.302 190.021 310.38 190.209 310.484C190.396 310.589 190.729 310.818 191.209 311.172C191.698 311.516 192.13 311.88 192.505 312.266C192.88 312.641 193.219 313.125 193.521 313.719C193.823 314.312 193.974 314.911 193.974 315.516C193.974 317.349 193.37 318.797 192.162 319.859C190.953 320.911 189.308 321.438 187.224 321.438C185.141 321.438 183.495 320.911 182.287 319.859C181.078 318.797 180.474 317.349 180.474 315.516C180.474 314.911 180.62 314.318 180.912 313.734C181.203 313.141 181.552 312.646 181.959 312.25C182.375 311.844 182.787 311.484 183.193 311.172C183.61 310.859 183.964 310.625 184.255 310.469L184.693 310.25C184.589 310.208 184.453 310.146 184.287 310.062C184.12 309.979 183.823 309.797 183.396 309.516C182.969 309.234 182.589 308.943 182.255 308.641C181.933 308.339 181.636 307.953 181.365 307.484C181.104 307.005 180.974 306.521 180.974 306.031ZM183.63 306.031C183.63 306.396 183.75 306.755 183.99 307.109C184.24 307.453 184.542 307.745 184.896 307.984C185.25 308.224 185.604 308.443 185.959 308.641C186.313 308.828 186.61 308.969 186.849 309.062L187.224 309.188C187.276 309.167 187.344 309.141 187.427 309.109C187.511 309.078 187.677 309.01 187.927 308.906C188.177 308.792 188.417 308.677 188.646 308.562C188.875 308.438 189.125 308.281 189.396 308.094C189.677 307.906 189.917 307.714 190.115 307.516C190.313 307.318 190.479 307.089 190.615 306.828C190.75 306.568 190.818 306.302 190.818 306.031C190.818 305.219 190.495 304.578 189.849 304.109C189.203 303.63 188.328 303.391 187.224 303.391C186.12 303.391 185.245 303.63 184.599 304.109C183.953 304.578 183.63 305.219 183.63 306.031ZM187.224 311.312C187.172 311.333 187.094 311.365 186.99 311.406C186.896 311.448 186.703 311.542 186.412 311.688C186.13 311.833 185.86 311.99 185.599 312.156C185.349 312.312 185.063 312.521 184.74 312.781C184.427 313.031 184.156 313.286 183.927 313.547C183.709 313.807 183.521 314.115 183.365 314.469C183.209 314.812 183.13 315.161 183.13 315.516C183.13 316.505 183.495 317.292 184.224 317.875C184.964 318.448 185.964 318.734 187.224 318.734C188.485 318.734 189.479 318.448 190.209 317.875C190.948 317.292 191.318 316.505 191.318 315.516C191.318 315.036 191.177 314.562 190.896 314.094C190.615 313.625 190.271 313.229 189.865 312.906C189.469 312.583 189.068 312.297 188.662 312.047C188.266 311.797 187.927 311.615 187.646 311.5L187.224 311.312ZM198.287 303.688C199.495 301.854 201.141 300.938 203.224 300.938C205.308 300.938 206.953 301.854 208.162 303.688C209.37 305.521 209.974 308.021 209.974 311.188C209.974 314.354 209.37 316.854 208.162 318.688C206.953 320.521 205.308 321.438 203.224 321.438C201.141 321.438 199.495 320.521 198.287 318.688C197.078 316.854 196.474 314.354 196.474 311.188C196.474 308.021 197.078 305.521 198.287 303.688ZM206.13 305.484C205.422 304.089 204.453 303.391 203.224 303.391C201.995 303.391 201.026 304.089 200.318 305.484C199.61 306.88 199.255 308.781 199.255 311.188C199.255 313.594 199.61 315.495 200.318 316.891C201.026 318.286 201.995 318.984 203.224 318.984C204.453 318.984 205.422 318.286 206.13 316.891C206.839 315.495 207.193 313.594 207.193 311.188C207.193 308.781 206.839 306.88 206.13 305.484ZM201.896 309.188H204.552V313.188H201.896V309.188ZM214.287 303.688C215.495 301.854 217.141 300.938 219.224 300.938C221.308 300.938 222.953 301.854 224.162 303.688C225.37 305.521 225.974 308.021 225.974 311.188C225.974 314.354 225.37 316.854 224.162 318.688C222.953 320.521 221.308 321.438 219.224 321.438C217.141 321.438 215.495 320.521 214.287 318.688C213.078 316.854 212.474 314.354 212.474 311.188C212.474 308.021 213.078 305.521 214.287 303.688ZM222.13 305.484C221.422 304.089 220.453 303.391 219.224 303.391C217.995 303.391 217.026 304.089 216.318 305.484C215.61 306.88 215.255 308.781 215.255 311.188C215.255 313.594 215.61 315.495 216.318 316.891C217.026 318.286 217.995 318.984 219.224 318.984C220.453 318.984 221.422 318.286 222.13 316.891C222.839 315.495 223.193 313.594 223.193 311.188C223.193 308.781 222.839 306.88 222.13 305.484ZM217.896 309.188H220.552V313.188H217.896V309.188Z" fill="#61615E"/>
<path d="M406.718 301.188H409.75L405.437 308.984C405.843 308.953 406.27 308.938 406.718 308.938C408.645 308.938 410.166 309.5 411.281 310.625C412.406 311.74 412.968 313.26 412.968 315.188C412.968 317.115 412.406 318.641 411.281 319.766C410.166 320.88 408.645 321.438 406.718 321.438C404.791 321.438 403.265 320.88 402.14 319.766C401.026 318.641 400.468 317.115 400.468 315.188C400.468 313.406 400.718 312.057 401.218 311.141L406.718 301.188ZM406.718 311.391C405.364 311.391 404.427 311.667 403.906 312.219C403.385 312.771 403.125 313.76 403.125 315.188C403.125 316.365 403.447 317.292 404.093 317.969C404.739 318.646 405.614 318.984 406.718 318.984C407.822 318.984 408.697 318.646 409.343 317.969C409.989 317.292 410.312 316.365 410.312 315.188C410.312 314.01 409.989 313.083 409.343 312.406C408.697 311.729 407.822 311.391 406.718 311.391ZM417.781 303.688C418.989 301.854 420.635 300.938 422.718 300.938C424.802 300.938 426.447 301.854 427.656 303.688C428.864 305.521 429.468 308.021 429.468 311.188C429.468 314.354 428.864 316.854 427.656 318.688C426.447 320.521 424.802 321.438 422.718 321.438C420.635 321.438 418.989 320.521 417.781 318.688C416.572 316.854 415.968 314.354 415.968 311.188C415.968 308.021 416.572 305.521 417.781 303.688ZM425.625 305.484C424.916 304.089 423.947 303.391 422.718 303.391C421.489 303.391 420.52 304.089 419.812 305.484C419.104 306.88 418.75 308.781 418.75 311.188C418.75 313.594 419.104 315.495 419.812 316.891C420.52 318.286 421.489 318.984 422.718 318.984C423.947 318.984 424.916 318.286 425.625 316.891C426.333 315.495 426.687 313.594 426.687 311.188C426.687 308.781 426.333 306.88 425.625 305.484ZM421.39 309.188H424.046V313.188H421.39V309.188ZM433.781 303.688C434.989 301.854 436.635 300.938 438.718 300.938C440.802 300.938 442.447 301.854 443.656 303.688C444.864 305.521 445.468 308.021 445.468 311.188C445.468 314.354 444.864 316.854 443.656 318.688C442.447 320.521 440.802 321.438 438.718 321.438C436.635 321.438 434.989 320.521 433.781 318.688C432.572 316.854 431.968 314.354 431.968 311.188C431.968 308.021 432.572 305.521 433.781 303.688ZM441.625 305.484C440.916 304.089 439.947 303.391 438.718 303.391C437.489 303.391 436.52 304.089 435.812 305.484C435.104 306.88 434.75 308.781 434.75 311.188C434.75 313.594 435.104 315.495 435.812 316.891C436.52 318.286 437.489 318.984 438.718 318.984C439.947 318.984 440.916 318.286 441.625 316.891C442.333 315.495 442.687 313.594 442.687 311.188C442.687 308.781 442.333 306.88 441.625 305.484ZM437.39 309.188H440.046V313.188H437.39V309.188Z" fill="#61615E"/>
<path d="M619.962 306.031C619.962 304.458 620.52 303.219 621.634 302.312C622.759 301.396 624.285 300.938 626.212 300.938C628.14 300.938 629.66 301.396 630.775 302.312C631.9 303.219 632.462 304.458 632.462 306.031C632.462 306.521 632.332 307 632.072 307.469C631.822 307.938 631.515 308.333 631.15 308.656C630.785 308.969 630.421 309.255 630.056 309.516C629.692 309.766 629.379 309.948 629.119 310.062L628.744 310.25C628.858 310.302 629.009 310.38 629.197 310.484C629.384 310.589 629.718 310.818 630.197 311.172C630.686 311.516 631.119 311.88 631.494 312.266C631.869 312.641 632.207 313.125 632.509 313.719C632.811 314.312 632.962 314.911 632.962 315.516C632.962 317.349 632.358 318.797 631.15 319.859C629.942 320.911 628.296 321.438 626.212 321.438C624.129 321.438 622.483 320.911 621.275 319.859C620.067 318.797 619.462 317.349 619.462 315.516C619.462 314.911 619.608 314.318 619.9 313.734C620.192 313.141 620.541 312.646 620.947 312.25C621.364 311.844 621.775 311.484 622.181 311.172C622.598 310.859 622.952 310.625 623.244 310.469L623.681 310.25C623.577 310.208 623.442 310.146 623.275 310.062C623.108 309.979 622.811 309.797 622.384 309.516C621.957 309.234 621.577 308.943 621.244 308.641C620.921 308.339 620.624 307.953 620.353 307.484C620.093 307.005 619.962 306.521 619.962 306.031ZM622.619 306.031C622.619 306.396 622.739 306.755 622.978 307.109C623.228 307.453 623.53 307.745 623.884 307.984C624.239 308.224 624.593 308.443 624.947 308.641C625.301 308.828 625.598 308.969 625.837 309.062L626.212 309.188C626.265 309.167 626.332 309.141 626.416 309.109C626.499 309.078 626.666 309.01 626.916 308.906C627.166 308.792 627.405 308.677 627.634 308.562C627.864 308.438 628.114 308.281 628.384 308.094C628.666 307.906 628.905 307.714 629.103 307.516C629.301 307.318 629.468 307.089 629.603 306.828C629.739 306.568 629.806 306.302 629.806 306.031C629.806 305.219 629.483 304.578 628.837 304.109C628.192 303.63 627.317 303.391 626.212 303.391C625.108 303.391 624.233 303.63 623.587 304.109C622.942 304.578 622.619 305.219 622.619 306.031ZM626.212 311.312C626.16 311.333 626.082 311.365 625.978 311.406C625.884 311.448 625.692 311.542 625.4 311.688C625.119 311.833 624.848 311.99 624.587 312.156C624.337 312.312 624.051 312.521 623.728 312.781C623.416 313.031 623.145 313.286 622.916 313.547C622.697 313.807 622.509 314.115 622.353 314.469C622.197 314.812 622.119 315.161 622.119 315.516C622.119 316.505 622.483 317.292 623.212 317.875C623.952 318.448 624.952 318.734 626.212 318.734C627.473 318.734 628.468 318.448 629.197 317.875C629.936 317.292 630.306 316.505 630.306 315.516C630.306 315.036 630.166 314.562 629.884 314.094C629.603 313.625 629.259 313.229 628.853 312.906C628.457 312.583 628.056 312.297 627.65 312.047C627.254 311.797 626.916 311.615 626.634 311.5L626.212 311.312ZM637.275 303.688C638.483 301.854 640.129 300.938 642.212 300.938C644.296 300.938 645.942 301.854 647.15 303.688C648.358 305.521 648.962 308.021 648.962 311.188C648.962 314.354 648.358 316.854 647.15 318.688C645.942 320.521 644.296 321.438 642.212 321.438C640.129 321.438 638.483 320.521 637.275 318.688C636.067 316.854 635.462 314.354 635.462 311.188C635.462 308.021 636.067 305.521 637.275 303.688ZM645.119 305.484C644.41 304.089 643.442 303.391 642.212 303.391C640.983 303.391 640.015 304.089 639.306 305.484C638.598 306.88 638.244 308.781 638.244 311.188C638.244 313.594 638.598 315.495 639.306 316.891C640.015 318.286 640.983 318.984 642.212 318.984C643.442 318.984 644.41 318.286 645.119 316.891C645.827 315.495 646.181 313.594 646.181 311.188C646.181 308.781 645.827 306.88 645.119 305.484ZM640.884 309.188H643.541V313.188H640.884V309.188ZM653.275 303.688C654.483 301.854 656.129 300.938 658.212 300.938C660.296 300.938 661.942 301.854 663.15 303.688C664.358 305.521 664.962 308.021 664.962 311.188C664.962 314.354 664.358 316.854 663.15 318.688C661.942 320.521 660.296 321.438 658.212 321.438C656.129 321.438 654.483 320.521 653.275 318.688C652.067 316.854 651.462 314.354 651.462 311.188C651.462 308.021 652.067 305.521 653.275 303.688ZM661.119 305.484C660.41 304.089 659.442 303.391 658.212 303.391C656.983 303.391 656.015 304.089 655.306 305.484C654.598 306.88 654.244 308.781 654.244 311.188C654.244 313.594 654.598 315.495 655.306 316.891C656.015 318.286 656.983 318.984 658.212 318.984C659.442 318.984 660.41 318.286 661.119 316.891C661.827 315.495 662.181 313.594 662.181 311.188C662.181 308.781 661.827 306.88 661.119 305.484ZM656.884 309.188H659.541V313.188H656.884V309.188Z" fill="#61615E"/>
<path d="M95.1746 100.607C95.1746 47.056 138.586 3.64436 192.137 3.64436H329.869V242.747H95.1746V100.607Z" stroke="#61615E" stroke-width="2.44497"/>
<path d="M94.9754 100.341C94.9754 46.7904 138.387 3.37874 191.938 3.37874H330.043V51.9024H190.21C163.399 51.9025 141.665 73.6372 141.665 100.448V243.172H94.9754V100.341Z" stroke="#61615E" stroke-width="2.44497"/>
<path d="M753.578 100.607C753.578 47.056 710.167 3.64436 656.616 3.64436H518.883V242.747H753.578V100.607Z" stroke="#61615E" stroke-width="2.44497"/>
<path d="M753.778 100.341C753.778 46.7904 710.366 3.37874 656.815 3.37874H518.71V51.9024H658.542C685.354 51.9025 707.088 73.6372 707.088 100.448V243.172H753.778V100.341Z" stroke="#61615E" stroke-width="2.44497"/>
<path d="M330.428 52.191H518.159V243.447H330.428V52.191Z" stroke="#61615E" stroke-width="2.35068"/>
<path d="M330.307 3.33159H518.158V52.058H330.307V3.33159Z" stroke="#61615E" stroke-width="2.35068"/>
</svg>
