<svg width="548" height="331" viewBox="0 0 548 331" fill="none" xmlns="http://www.w3.org/2000/svg">
<path d="M89.6279 285.773H347.628" stroke="#61615E" stroke-width="2.44497" stroke-linecap="round"/>
<path d="M347.628 285.773H546.628" stroke="#61615E" stroke-width="2.44497" stroke-linecap="round"/>
<path d="M54 1.42188L54 246.485" stroke="#61615E" stroke-width="2.44497" stroke-linecap="round"/>
<path d="M24 140.402L24 143.434L16.2031 139.121C16.2344 139.527 16.25 139.954 16.25 140.402C16.25 142.329 15.6927 143.855 14.5781 144.98C13.4531 146.095 11.9271 146.652 10 146.652C8.07292 146.652 6.55208 146.095 5.4375 144.98C4.3125 143.855 3.75 142.329 3.75 140.402C3.75 138.475 4.3125 136.954 5.4375 135.84C6.55208 134.715 8.07292 134.152 10 134.152C11.7812 134.152 13.1302 134.402 14.0469 134.902L24 140.402ZM13.7969 140.402C13.7969 139.048 13.5208 138.111 12.9687 137.59C12.4167 137.069 11.4271 136.809 10 136.809C8.82292 136.809 7.89583 137.132 7.21875 137.777C6.54167 138.423 6.20312 139.298 6.20312 140.402C6.20312 141.507 6.54167 142.382 7.21875 143.027C7.89583 143.673 8.82292 143.996 10 143.996C11.1771 143.996 12.1042 143.673 12.7812 143.027C13.4583 142.382 13.7969 141.507 13.7969 140.402ZM6.45312 127.246L11.5469 127.246L11.5469 124.402C11.5469 122.475 12.026 120.954 12.9844 119.84C13.9323 118.715 15.2292 118.152 16.875 118.152C18.2083 118.152 19.349 118.35 20.2969 118.746C21.2448 119.132 21.9948 119.704 22.5469 120.465C23.099 121.225 23.5 122.121 23.75 123.152C24 124.173 24.125 125.366 24.125 126.73C24.125 127.397 24.1042 128.038 24.0625 128.652C24.0208 129.267 23.9792 129.715 23.9375 129.996L23.875 130.402L21.5469 130.402L21.5469 126.73C21.5469 124.803 21.1875 123.335 20.4687 122.324C19.75 121.314 18.5521 120.809 16.875 120.809C15.9896 120.809 15.2917 121.132 14.7812 121.777C14.2604 122.413 14 123.288 14 124.402L14 129.902L4 129.902L4 118.902L6.45312 118.902L6.45312 127.246ZM6.5 113.34C4.66666 112.132 3.75 110.486 3.75 108.402C3.75 106.319 4.66666 104.673 6.5 103.465C8.33333 102.257 10.8333 101.652 14 101.652C17.1667 101.652 19.6667 102.257 21.5 103.465C23.3333 104.673 24.25 106.319 24.25 108.402C24.25 110.486 23.3333 112.132 21.5 113.34C19.6667 114.548 17.1667 115.152 14 115.152C10.8333 115.152 8.33333 114.548 6.5 113.34ZM8.29687 105.496C6.90104 106.204 6.20312 107.173 6.20312 108.402C6.20312 109.632 6.90104 110.6 8.29687 111.309C9.69271 112.017 11.5937 112.371 14 112.371C16.4062 112.371 18.3073 112.017 19.7031 111.309C21.099 110.6 21.7969 109.632 21.7969 108.402C21.7969 107.173 21.099 106.204 19.7031 105.496C18.3073 104.788 16.4062 104.434 14 104.434C11.5937 104.434 9.69271 104.788 8.29687 105.496ZM12 109.73L12 107.074L16 107.074L16 109.73L12 109.73Z" fill="#61615E"/>
<path d="M196.378 309.066C196.378 307.493 196.935 306.254 198.05 305.348C199.175 304.431 200.701 303.973 202.628 303.973C204.555 303.973 206.076 304.431 207.19 305.348C208.315 306.254 208.878 307.493 208.878 309.066C208.878 309.556 208.748 310.035 208.487 310.504C208.237 310.973 207.93 311.368 207.565 311.691C207.201 312.004 206.836 312.29 206.472 312.551C206.107 312.801 205.795 312.983 205.534 313.098L205.159 313.285C205.274 313.337 205.425 313.415 205.612 313.52C205.8 313.624 206.133 313.853 206.612 314.207C207.102 314.551 207.534 314.915 207.909 315.301C208.284 315.676 208.623 316.16 208.925 316.754C209.227 317.348 209.378 317.947 209.378 318.551C209.378 320.384 208.774 321.832 207.565 322.895C206.357 323.947 204.711 324.473 202.628 324.473C200.545 324.473 198.899 323.947 197.69 322.895C196.482 321.832 195.878 320.384 195.878 318.551C195.878 317.947 196.024 317.353 196.315 316.77C196.607 316.176 196.956 315.681 197.362 315.285C197.779 314.879 198.19 314.52 198.597 314.207C199.013 313.895 199.368 313.66 199.659 313.504L200.097 313.285C199.993 313.243 199.857 313.181 199.69 313.098C199.524 313.014 199.227 312.832 198.8 312.551C198.373 312.27 197.993 311.978 197.659 311.676C197.336 311.374 197.039 310.988 196.769 310.52C196.508 310.04 196.378 309.556 196.378 309.066ZM199.034 309.066C199.034 309.431 199.154 309.79 199.394 310.145C199.644 310.488 199.946 310.78 200.3 311.02C200.654 311.259 201.008 311.478 201.362 311.676C201.716 311.863 202.013 312.004 202.253 312.098L202.628 312.223C202.68 312.202 202.748 312.176 202.831 312.145C202.914 312.113 203.081 312.046 203.331 311.941C203.581 311.827 203.821 311.712 204.05 311.598C204.279 311.473 204.529 311.316 204.8 311.129C205.081 310.941 205.321 310.749 205.519 310.551C205.716 310.353 205.883 310.124 206.019 309.863C206.154 309.603 206.222 309.337 206.222 309.066C206.222 308.254 205.899 307.613 205.253 307.145C204.607 306.665 203.732 306.426 202.628 306.426C201.524 306.426 200.649 306.665 200.003 307.145C199.357 307.613 199.034 308.254 199.034 309.066ZM202.628 314.348C202.576 314.368 202.498 314.4 202.394 314.441C202.3 314.483 202.107 314.577 201.815 314.723C201.534 314.868 201.263 315.025 201.003 315.191C200.753 315.348 200.466 315.556 200.144 315.816C199.831 316.066 199.56 316.322 199.331 316.582C199.112 316.842 198.925 317.15 198.769 317.504C198.612 317.848 198.534 318.197 198.534 318.551C198.534 319.54 198.899 320.327 199.628 320.91C200.368 321.483 201.368 321.77 202.628 321.77C203.888 321.77 204.883 321.483 205.612 320.91C206.352 320.327 206.722 319.54 206.722 318.551C206.722 318.072 206.581 317.598 206.3 317.129C206.019 316.66 205.675 316.264 205.269 315.941C204.873 315.618 204.472 315.332 204.065 315.082C203.67 314.832 203.331 314.65 203.05 314.535L202.628 314.348ZM213.69 306.723C214.899 304.889 216.545 303.973 218.628 303.973C220.711 303.973 222.357 304.889 223.565 306.723C224.774 308.556 225.378 311.056 225.378 314.223C225.378 317.389 224.774 319.889 223.565 321.723C222.357 323.556 220.711 324.473 218.628 324.473C216.545 324.473 214.899 323.556 213.69 321.723C212.482 319.889 211.878 317.389 211.878 314.223C211.878 311.056 212.482 308.556 213.69 306.723ZM221.534 308.52C220.826 307.124 219.857 306.426 218.628 306.426C217.399 306.426 216.43 307.124 215.722 308.52C215.013 309.915 214.659 311.816 214.659 314.223C214.659 316.629 215.013 318.53 215.722 319.926C216.43 321.322 217.399 322.02 218.628 322.02C219.857 322.02 220.826 321.322 221.534 319.926C222.243 318.53 222.597 316.629 222.597 314.223C222.597 311.816 222.243 309.915 221.534 308.52ZM217.3 312.223H219.956V316.223H217.3V312.223ZM229.69 306.723C230.899 304.889 232.545 303.973 234.628 303.973C236.711 303.973 238.357 304.889 239.565 306.723C240.774 308.556 241.378 311.056 241.378 314.223C241.378 317.389 240.774 319.889 239.565 321.723C238.357 323.556 236.711 324.473 234.628 324.473C232.545 324.473 230.899 323.556 229.69 321.723C228.482 319.889 227.878 317.389 227.878 314.223C227.878 311.056 228.482 308.556 229.69 306.723ZM237.534 308.52C236.826 307.124 235.857 306.426 234.628 306.426C233.399 306.426 232.43 307.124 231.722 308.52C231.013 309.915 230.659 311.816 230.659 314.223C230.659 316.629 231.013 318.53 231.722 319.926C232.43 321.322 233.399 322.02 234.628 322.02C235.857 322.02 236.826 321.322 237.534 319.926C238.243 318.53 238.597 316.629 238.597 314.223C238.597 311.816 238.243 309.915 237.534 308.52ZM233.3 312.223H235.956V316.223H233.3V312.223Z" fill="#61615E"/>
<path d="M430.628 303.801H433.659L429.347 311.598C429.753 311.566 430.18 311.551 430.628 311.551C432.555 311.551 434.076 312.113 435.19 313.238C436.315 314.353 436.878 315.874 436.878 317.801C436.878 319.728 436.315 321.254 435.19 322.379C434.076 323.493 432.555 324.051 430.628 324.051C428.701 324.051 427.175 323.493 426.05 322.379C424.935 321.254 424.378 319.728 424.378 317.801C424.378 316.02 424.628 314.671 425.128 313.754L430.628 303.801ZM430.628 314.004C429.274 314.004 428.336 314.28 427.815 314.832C427.295 315.384 427.034 316.374 427.034 317.801C427.034 318.978 427.357 319.905 428.003 320.582C428.649 321.259 429.524 321.598 430.628 321.598C431.732 321.598 432.607 321.259 433.253 320.582C433.899 319.905 434.222 318.978 434.222 317.801C434.222 316.624 433.899 315.697 433.253 315.02C432.607 314.342 431.732 314.004 430.628 314.004ZM441.69 306.301C442.899 304.467 444.545 303.551 446.628 303.551C448.711 303.551 450.357 304.467 451.565 306.301C452.774 308.134 453.378 310.634 453.378 313.801C453.378 316.967 452.774 319.467 451.565 321.301C450.357 323.134 448.711 324.051 446.628 324.051C444.545 324.051 442.899 323.134 441.69 321.301C440.482 319.467 439.878 316.967 439.878 313.801C439.878 310.634 440.482 308.134 441.69 306.301ZM449.534 308.098C448.826 306.702 447.857 306.004 446.628 306.004C445.399 306.004 444.43 306.702 443.722 308.098C443.013 309.493 442.659 311.395 442.659 313.801C442.659 316.207 443.013 318.108 443.722 319.504C444.43 320.9 445.399 321.598 446.628 321.598C447.857 321.598 448.826 320.9 449.534 319.504C450.243 318.108 450.597 316.207 450.597 313.801C450.597 311.395 450.243 309.493 449.534 308.098ZM445.3 311.801H447.956V315.801H445.3V311.801ZM457.69 306.301C458.899 304.467 460.545 303.551 462.628 303.551C464.711 303.551 466.357 304.467 467.565 306.301C468.774 308.134 469.378 310.634 469.378 313.801C469.378 316.967 468.774 319.467 467.565 321.301C466.357 323.134 464.711 324.051 462.628 324.051C460.545 324.051 458.899 323.134 457.69 321.301C456.482 319.467 455.878 316.967 455.878 313.801C455.878 310.634 456.482 308.134 457.69 306.301ZM465.534 308.098C464.826 306.702 463.857 306.004 462.628 306.004C461.399 306.004 460.43 306.702 459.722 308.098C459.013 309.493 458.659 311.395 458.659 313.801C458.659 316.207 459.013 318.108 459.722 319.504C460.43 320.9 461.399 321.598 462.628 321.598C463.857 321.598 464.826 320.9 465.534 319.504C466.243 318.108 466.597 316.207 466.597 313.801C466.597 311.395 466.243 309.493 465.534 308.098ZM461.3 311.801H463.956V315.801H461.3V311.801Z" fill="#61615E"/>
<path d="M91.2225 99.6069C91.2225 46.0559 134.634 2.64436 188.185 2.64436H345.778V245.262H91.2225V99.6069Z" stroke="#61615E" stroke-width="2.44497"/>
<path d="M91.0047 99.3413C91.0047 45.7903 134.416 2.37874 187.967 2.37874H345.964V51.6443H190.355C163.543 51.6443 141.809 73.379 141.809 100.19V245.697H91.0047V99.3413Z" stroke="#61615E" stroke-width="2.44497"/>
<path d="M346.251 2.60112H545.3V245.75H346.251V2.60112Z" stroke="#61615E" stroke-width="2.35068"/>
<path d="M346.175 2.60112H545.825V51.6949H346.175V2.60112Z" stroke="#61615E" stroke-width="2.35068"/>
</svg>
