<svg width="450" height="363" viewBox="0 0 450 363" fill="none" xmlns="http://www.w3.org/2000/svg">
<g opacity="0.6">
<path d="M69 82.1562L69 256.156" stroke="#1A1B1C" stroke-width="3.16583" stroke-linecap="round"/>
<path d="M69 2.15625L69 72.1563" stroke="#1A1B1C" stroke-width="3.16583" stroke-linecap="round"/>
<path d="M4 191.809L4 188.777L11.7969 193.09C11.7656 192.684 11.75 192.257 11.75 191.809C11.75 189.882 12.3125 188.361 13.4375 187.246C14.5521 186.121 16.0729 185.559 18 185.559C19.9271 185.559 21.4531 186.121 22.5781 187.246C23.6927 188.361 24.25 189.882 24.25 191.809C24.25 193.736 23.6927 195.262 22.5781 196.387C21.4531 197.501 19.9271 198.059 18 198.059C16.2187 198.059 14.8698 197.809 13.9531 197.309L4 191.809ZM14.2031 191.809C14.2031 193.163 14.4792 194.1 15.0312 194.621C15.5833 195.142 16.5729 195.402 18 195.402C19.1771 195.402 20.1042 195.079 20.7812 194.434C21.4583 193.788 21.7969 192.913 21.7969 191.809C21.7969 190.704 21.4583 189.829 20.7812 189.184C20.1042 188.538 19.1771 188.215 18 188.215C16.8229 188.215 15.8958 188.538 15.2187 189.184C14.5417 189.829 14.2031 190.704 14.2031 191.809ZM6.5 180.746C4.66667 179.538 3.75 177.892 3.75 175.809C3.75 173.725 4.66667 172.079 6.5 170.871C8.33333 169.663 10.8333 169.059 14 169.059C17.1667 169.059 19.6667 169.663 21.5 170.871C23.3333 172.079 24.25 173.725 24.25 175.809C24.25 177.892 23.3333 179.538 21.5 180.746C19.6667 181.954 17.1667 182.559 14 182.559C10.8333 182.559 8.33333 181.954 6.5 180.746ZM8.29687 172.902C6.90104 173.611 6.20312 174.579 6.20312 175.809C6.20312 177.038 6.90104 178.007 8.29687 178.715C9.69271 179.423 11.5937 179.777 14 179.777C16.4062 179.777 18.3073 179.423 19.7031 178.715C21.099 178.007 21.7969 177.038 21.7969 175.809C21.7969 174.579 21.099 173.611 19.7031 172.902C18.3073 172.194 16.4062 171.84 14 171.84C11.5937 171.84 9.69271 172.194 8.29687 172.902ZM12 177.137L12 174.48L16 174.48L16 177.137L12 177.137ZM6.5 164.746C4.66666 163.538 3.75 161.892 3.75 159.809C3.75 157.725 4.66666 156.079 6.5 154.871C8.33333 153.663 10.8333 153.059 14 153.059C17.1667 153.059 19.6667 153.663 21.5 154.871C23.3333 156.079 24.25 157.725 24.25 159.809C24.25 161.892 23.3333 163.538 21.5 164.746C19.6667 165.954 17.1667 166.559 14 166.559C10.8333 166.559 8.33333 165.954 6.5 164.746ZM8.29687 156.902C6.90104 157.611 6.20312 158.579 6.20312 159.809C6.20312 161.038 6.90104 162.007 8.29687 162.715C9.69271 163.423 11.5937 163.777 14 163.777C16.4062 163.777 18.3073 163.423 19.7031 162.715C21.099 162.007 21.7969 161.038 21.7969 159.809C21.7969 158.579 21.099 157.611 19.7031 156.902C18.3073 156.194 16.4062 155.84 14 155.84C11.5937 155.84 9.69271 156.194 8.29687 156.902ZM12 161.137L12 158.48L16 158.48L16 161.137L12 161.137Z" fill="#1A1B1C"/>
<path d="M5.82129 62.9805C4.75879 61.918 4.22754 60.5273 4.22754 58.8086C4.22754 57.0898 4.75879 55.7044 5.82129 54.6523C6.88379 53.5898 8.16504 53.0586 9.66504 53.0586C10.0609 53.0586 10.4619 53.1211 10.8682 53.2461C11.2744 53.3711 11.6442 53.5117 11.9775 53.668C12.3005 53.8242 12.7223 54.0898 13.2432 54.4648C13.7536 54.8294 14.1755 55.1471 14.5088 55.418C14.8421 55.6784 15.3525 56.0951 16.04 56.668L22.0244 61.6211L22.0244 52.8086L24.4775 52.8086L24.4775 64.8086L22.0244 64.8086L14.4775 58.5586C13.5921 57.8294 12.9463 57.3086 12.54 56.9961C12.1234 56.6732 11.6494 56.3815 11.1182 56.1211C10.5869 55.8503 10.1025 55.7148 9.66504 55.7148C8.92545 55.7148 8.24316 56.0065 7.61816 56.5898C6.99316 57.1628 6.68066 57.9023 6.68066 58.8086C6.68066 59.7148 6.99316 60.4596 7.61816 61.043C8.24316 61.6159 8.92546 61.9023 9.66504 61.9023L9.66504 64.5586C8.16504 64.5586 6.88379 64.0326 5.82129 62.9805ZM6.97754 47.7461C5.1442 46.5378 4.22754 44.8919 4.22754 42.8086C4.22754 40.7253 5.1442 39.0794 6.97754 37.8711C8.81087 36.6628 11.3109 36.0586 14.4775 36.0586C17.6442 36.0586 20.1442 36.6628 21.9775 37.8711C23.8109 39.0794 24.7275 40.7253 24.7275 42.8086C24.7275 44.8919 23.8109 46.5378 21.9775 47.7461C20.1442 48.9544 17.6442 49.5586 14.4775 49.5586C11.3109 49.5586 8.81087 48.9544 6.97754 47.7461ZM8.77441 39.9023C7.37858 40.6107 6.68066 41.5794 6.68066 42.8086C6.68066 44.0378 7.37858 45.0065 8.77441 45.7148C10.1702 46.4232 12.0713 46.7773 14.4775 46.7773C16.8838 46.7773 18.7848 46.4232 20.1807 45.7148C21.5765 45.0065 22.2744 44.0378 22.2744 42.8086C22.2744 41.5794 21.5765 40.6107 20.1807 39.9023C18.7848 39.194 16.8838 38.8398 14.4775 38.8398C12.0713 38.8398 10.1702 39.194 8.77441 39.9023ZM12.4775 44.1367L12.4775 41.4805L16.4775 41.4805L16.4775 44.1367L12.4775 44.1367ZM6.97753 31.7461C5.1442 30.5378 4.22753 28.8919 4.22753 26.8086C4.22753 24.7253 5.1442 23.0794 6.97753 21.8711C8.81087 20.6628 11.3109 20.0586 14.4775 20.0586C17.6442 20.0586 20.1442 20.6628 21.9775 21.8711C23.8109 23.0794 24.7275 24.7253 24.7275 26.8086C24.7275 28.8919 23.8109 30.5378 21.9775 31.7461C20.1442 32.9544 17.6442 33.5586 14.4775 33.5586C11.3109 33.5586 8.81087 32.9544 6.97753 31.7461ZM8.77441 23.9023C7.37858 24.6107 6.68066 25.5794 6.68066 26.8086C6.68066 28.0378 7.37858 29.0065 8.77441 29.7148C10.1702 30.4232 12.0713 30.7773 14.4775 30.7773C16.8838 30.7773 18.7848 30.4232 20.1807 29.7148C21.5765 29.0065 22.2744 28.0378 22.2744 26.8086C22.2744 25.5794 21.5765 24.6107 20.1807 23.9023C18.7848 23.194 16.8838 22.8398 14.4775 22.8398C12.0713 22.8398 10.1702 23.194 8.77441 23.9023ZM12.4775 28.1367L12.4775 25.4805L16.4775 25.4805L16.4775 28.1367L12.4775 28.1367Z" fill="#1A1B1C"/>
<path d="M116 310.156L367 310.156" stroke="#1A1B1C" stroke-width="3.16583" stroke-linecap="round"/>
<path d="M232.5 334.391V336.844L226 354.391H223.172L229.672 336.844H219.5V334.391H232.5ZM239.156 336.844V341.938H242C243.927 341.938 245.448 342.417 246.562 343.375C247.688 344.323 248.25 345.62 248.25 347.266C248.25 348.599 248.052 349.74 247.656 350.688C247.271 351.635 246.698 352.385 245.938 352.938C245.177 353.49 244.281 353.891 243.25 354.141C242.229 354.391 241.036 354.516 239.672 354.516C239.005 354.516 238.365 354.495 237.75 354.453C237.135 354.411 236.688 354.37 236.406 354.328L236 354.266V351.938H239.672C241.599 351.938 243.068 351.578 244.078 350.859C245.089 350.141 245.594 348.943 245.594 347.266C245.594 346.38 245.271 345.682 244.625 345.172C243.99 344.651 243.115 344.391 242 344.391H236.5V334.391H247.5V336.844H239.156ZM253.062 336.891C254.271 335.057 255.917 334.141 258 334.141C260.083 334.141 261.729 335.057 262.938 336.891C264.146 338.724 264.75 341.224 264.75 344.391C264.75 347.557 264.146 350.057 262.938 351.891C261.729 353.724 260.083 354.641 258 354.641C255.917 354.641 254.271 353.724 253.062 351.891C251.854 350.057 251.25 347.557 251.25 344.391C251.25 341.224 251.854 338.724 253.062 336.891ZM260.906 338.688C260.198 337.292 259.229 336.594 258 336.594C256.771 336.594 255.802 337.292 255.094 338.688C254.385 340.083 254.031 341.984 254.031 344.391C254.031 346.797 254.385 348.698 255.094 350.094C255.802 351.49 256.771 352.188 258 352.188C259.229 352.188 260.198 351.49 260.906 350.094C261.615 348.698 261.969 346.797 261.969 344.391C261.969 341.984 261.615 340.083 260.906 338.688ZM256.672 342.391H259.328V346.391H256.672V342.391Z" fill="#1A1B1C"/>
<path d="M381 310.156L448 310.156" stroke="#1A1B1C" stroke-width="3.16583" stroke-linecap="round"/>
<path d="M393.828 335.734C394.891 334.672 396.281 334.141 398 334.141C399.719 334.141 401.104 334.672 402.156 335.734C403.219 336.797 403.75 338.078 403.75 339.578C403.75 339.974 403.688 340.375 403.562 340.781C403.438 341.188 403.297 341.557 403.141 341.891C402.984 342.214 402.719 342.635 402.344 343.156C401.979 343.667 401.661 344.089 401.391 344.422C401.13 344.755 400.714 345.266 400.141 345.953L395.188 351.938H404V354.391H392V351.938L398.25 344.391C398.979 343.505 399.5 342.859 399.812 342.453C400.135 342.036 400.427 341.562 400.688 341.031C400.958 340.5 401.094 340.016 401.094 339.578C401.094 338.839 400.802 338.156 400.219 337.531C399.646 336.906 398.906 336.594 398 336.594C397.094 336.594 396.349 336.906 395.766 337.531C395.193 338.156 394.906 338.839 394.906 339.578H392.25C392.25 338.078 392.776 336.797 393.828 335.734ZM409.062 336.891C410.271 335.057 411.917 334.141 414 334.141C416.083 334.141 417.729 335.057 418.938 336.891C420.146 338.724 420.75 341.224 420.75 344.391C420.75 347.557 420.146 350.057 418.938 351.891C417.729 353.724 416.083 354.641 414 354.641C411.917 354.641 410.271 353.724 409.062 351.891C407.854 350.057 407.25 347.557 407.25 344.391C407.25 341.224 407.854 338.724 409.062 336.891ZM416.906 338.688C416.198 337.292 415.229 336.594 414 336.594C412.771 336.594 411.802 337.292 411.094 338.688C410.385 340.083 410.031 341.984 410.031 344.391C410.031 346.797 410.385 348.698 411.094 350.094C411.802 351.49 412.771 352.188 414 352.188C415.229 352.188 416.198 351.49 416.906 350.094C417.615 348.698 417.969 346.797 417.969 344.391C417.969 341.984 417.615 340.083 416.906 338.688ZM412.672 342.391H415.328V346.391H412.672V342.391ZM425.062 336.891C426.271 335.057 427.917 334.141 430 334.141C432.083 334.141 433.729 335.057 434.938 336.891C436.146 338.724 436.75 341.224 436.75 344.391C436.75 347.557 436.146 350.057 434.938 351.891C433.729 353.724 432.083 354.641 430 354.641C427.917 354.641 426.271 353.724 425.062 351.891C423.854 350.057 423.25 347.557 423.25 344.391C423.25 341.224 423.854 338.724 425.062 336.891ZM432.906 338.688C432.198 337.292 431.229 336.594 430 336.594C428.771 336.594 427.802 337.292 427.094 338.688C426.385 340.083 426.031 341.984 426.031 344.391C426.031 346.797 426.385 348.698 427.094 350.094C427.802 351.49 428.771 352.188 430 352.188C431.229 352.188 432.198 351.49 432.906 350.094C433.615 348.698 433.969 346.797 433.969 344.391C433.969 341.984 433.615 340.083 432.906 338.688ZM428.672 342.391H431.328V346.391H428.672V342.391Z" fill="#1A1B1C"/>
<path d="M447.487 129.383C447.487 60.0437 391.277 3.83291 321.937 3.83291H117.358V254.934H447.487V129.383Z" stroke="#1A1B1C" stroke-width="3.16583"/>
<path d="M447.487 129.383C447.487 60.0437 391.277 3.83291 321.937 3.83291H117.358V72.2511L318.846 72.2511C353.562 72.2511 381.705 100.394 381.705 135.11V254.934L447.487 254.934V129.383Z" stroke="#1A1B1C" stroke-width="3.16583"/>
</g>
</svg>
