<svg width="559" height="332" viewBox="0 0 559 332" fill="none" xmlns="http://www.w3.org/2000/svg">
<path d="M85.5391 284.125L556.948 284.125" stroke="#61615E" stroke-width="2.44497" stroke-linecap="round"/>
<path d="M51.7939 2.15625L51.794 245.525" stroke="#61615E" stroke-width="2.44497" stroke-linecap="round"/>
<path d="M24 140.983L24 144.014L16.2031 139.701C16.2344 140.108 16.25 140.535 16.25 140.983C16.25 142.91 15.6927 144.436 14.5781 145.561C13.4531 146.675 11.9271 147.233 10 147.233C8.07292 147.233 6.55208 146.675 5.4375 145.561C4.3125 144.436 3.75 142.91 3.75 140.983C3.75 139.056 4.3125 137.535 5.4375 136.42C6.55208 135.295 8.07292 134.733 10 134.733C11.7812 134.733 13.1302 134.983 14.0469 135.483L24 140.983ZM13.7969 140.983C13.7969 139.628 13.5208 138.691 12.9687 138.17C12.4167 137.649 11.4271 137.389 10 137.389C8.82292 137.389 7.89583 137.712 7.21875 138.358C6.54167 139.003 6.20312 139.878 6.20312 140.983C6.20312 142.087 6.54167 142.962 7.21875 143.608C7.89583 144.253 8.82292 144.576 10 144.576C11.1771 144.576 12.1042 144.253 12.7812 143.608C13.4583 142.962 13.7969 142.087 13.7969 140.983ZM6.45312 127.826L11.5469 127.826L11.5469 124.983C11.5469 123.056 12.026 121.535 12.9844 120.42C13.9323 119.295 15.2292 118.733 16.875 118.733C18.2083 118.733 19.349 118.931 20.2969 119.326C21.2448 119.712 21.9948 120.285 22.5469 121.045C23.099 121.806 23.5 122.701 23.75 123.733C24 124.753 24.125 125.946 24.125 127.311C24.125 127.977 24.1042 128.618 24.0625 129.233C24.0208 129.847 23.9792 130.295 23.9375 130.576L23.875 130.983L21.5469 130.983L21.5469 127.311C21.5469 125.384 21.1875 123.915 20.4687 122.905C19.75 121.894 18.5521 121.389 16.875 121.389C15.9896 121.389 15.2917 121.712 14.7812 122.358C14.2604 122.993 14 123.868 14 124.983L14 130.483L4 130.483L4 119.483L6.45312 119.483L6.45312 127.826ZM6.5 113.92C4.66666 112.712 3.75 111.066 3.75 108.983C3.75 106.899 4.66666 105.253 6.5 104.045C8.33333 102.837 10.8333 102.233 14 102.233C17.1667 102.233 19.6667 102.837 21.5 104.045C23.3333 105.253 24.25 106.899 24.25 108.983C24.25 111.066 23.3333 112.712 21.5 113.92C19.6667 115.128 17.1667 115.733 14 115.733C10.8333 115.733 8.33333 115.128 6.5 113.92ZM8.29687 106.076C6.90104 106.785 6.20312 107.753 6.20312 108.983C6.20312 110.212 6.90104 111.181 8.29687 111.889C9.69271 112.597 11.5937 112.951 14 112.951C16.4062 112.951 18.3073 112.597 19.7031 111.889C21.099 111.181 21.7969 110.212 21.7969 108.983C21.7969 107.753 21.099 106.785 19.7031 106.076C18.3073 105.368 16.4062 105.014 14 105.014C11.5937 105.014 9.69271 105.368 8.29687 106.076ZM12 110.311L12 107.655L16 107.655L16 110.311L12 110.311Z" fill="#61615E"/>
<path d="M181.619 307.973C181.619 306.4 182.176 305.16 183.291 304.254C184.416 303.337 185.942 302.879 187.869 302.879C189.796 302.879 191.317 303.337 192.432 304.254C193.557 305.16 194.119 306.4 194.119 307.973C194.119 308.462 193.989 308.941 193.729 309.41C193.479 309.879 193.171 310.275 192.807 310.598C192.442 310.91 192.078 311.197 191.713 311.457C191.348 311.707 191.036 311.889 190.775 312.004L190.4 312.191C190.515 312.243 190.666 312.322 190.854 312.426C191.041 312.53 191.374 312.759 191.854 313.113C192.343 313.457 192.775 313.822 193.15 314.207C193.525 314.582 193.864 315.066 194.166 315.66C194.468 316.254 194.619 316.853 194.619 317.457C194.619 319.29 194.015 320.738 192.807 321.801C191.598 322.853 189.953 323.379 187.869 323.379C185.786 323.379 184.14 322.853 182.932 321.801C181.723 320.738 181.119 319.29 181.119 317.457C181.119 316.853 181.265 316.259 181.557 315.676C181.848 315.082 182.197 314.587 182.604 314.191C183.02 313.785 183.432 313.426 183.838 313.113C184.255 312.801 184.609 312.566 184.9 312.41L185.338 312.191C185.234 312.15 185.098 312.087 184.932 312.004C184.765 311.921 184.468 311.738 184.041 311.457C183.614 311.176 183.234 310.884 182.9 310.582C182.578 310.28 182.281 309.895 182.01 309.426C181.749 308.947 181.619 308.462 181.619 307.973ZM184.275 307.973C184.275 308.337 184.395 308.697 184.635 309.051C184.885 309.395 185.187 309.686 185.541 309.926C185.895 310.165 186.249 310.384 186.604 310.582C186.958 310.77 187.255 310.91 187.494 311.004L187.869 311.129C187.921 311.108 187.989 311.082 188.072 311.051C188.156 311.02 188.322 310.952 188.572 310.848C188.822 310.733 189.062 310.618 189.291 310.504C189.52 310.379 189.77 310.223 190.041 310.035C190.322 309.848 190.562 309.655 190.76 309.457C190.958 309.259 191.124 309.03 191.26 308.77C191.395 308.509 191.463 308.243 191.463 307.973C191.463 307.16 191.14 306.52 190.494 306.051C189.848 305.572 188.973 305.332 187.869 305.332C186.765 305.332 185.89 305.572 185.244 306.051C184.598 306.52 184.275 307.16 184.275 307.973ZM187.869 313.254C187.817 313.275 187.739 313.306 187.635 313.348C187.541 313.389 187.348 313.483 187.057 313.629C186.775 313.775 186.505 313.931 186.244 314.098C185.994 314.254 185.708 314.462 185.385 314.723C185.072 314.973 184.801 315.228 184.572 315.488C184.354 315.749 184.166 316.056 184.01 316.41C183.854 316.754 183.775 317.103 183.775 317.457C183.775 318.447 184.14 319.233 184.869 319.816C185.609 320.389 186.609 320.676 187.869 320.676C189.13 320.676 190.124 320.389 190.854 319.816C191.593 319.233 191.963 318.447 191.963 317.457C191.963 316.978 191.822 316.504 191.541 316.035C191.26 315.566 190.916 315.171 190.51 314.848C190.114 314.525 189.713 314.238 189.307 313.988C188.911 313.738 188.572 313.556 188.291 313.441L187.869 313.254ZM198.932 305.629C200.14 303.796 201.786 302.879 203.869 302.879C205.953 302.879 207.598 303.796 208.807 305.629C210.015 307.462 210.619 309.962 210.619 313.129C210.619 316.296 210.015 318.796 208.807 320.629C207.598 322.462 205.953 323.379 203.869 323.379C201.786 323.379 200.14 322.462 198.932 320.629C197.723 318.796 197.119 316.296 197.119 313.129C197.119 309.962 197.723 307.462 198.932 305.629ZM206.775 307.426C206.067 306.03 205.098 305.332 203.869 305.332C202.64 305.332 201.671 306.03 200.963 307.426C200.255 308.822 199.9 310.723 199.9 313.129C199.9 315.535 200.255 317.436 200.963 318.832C201.671 320.228 202.64 320.926 203.869 320.926C205.098 320.926 206.067 320.228 206.775 318.832C207.484 317.436 207.838 315.535 207.838 313.129C207.838 310.723 207.484 308.822 206.775 307.426ZM202.541 311.129H205.197V315.129H202.541V311.129ZM214.932 305.629C216.14 303.796 217.786 302.879 219.869 302.879C221.953 302.879 223.598 303.796 224.807 305.629C226.015 307.462 226.619 309.962 226.619 313.129C226.619 316.296 226.015 318.796 224.807 320.629C223.598 322.462 221.953 323.379 219.869 323.379C217.786 323.379 216.14 322.462 214.932 320.629C213.723 318.796 213.119 316.296 213.119 313.129C213.119 309.962 213.723 307.462 214.932 305.629ZM222.775 307.426C222.067 306.03 221.098 305.332 219.869 305.332C218.64 305.332 217.671 306.03 216.963 307.426C216.255 308.822 215.9 310.723 215.9 313.129C215.9 315.535 216.255 317.436 216.963 318.832C217.671 320.228 218.64 320.926 219.869 320.926C221.098 320.926 222.067 320.228 222.775 318.832C223.484 317.436 223.838 315.535 223.838 313.129C223.838 310.723 223.484 308.822 222.775 307.426ZM218.541 311.129H221.197V315.129H218.541V311.129Z" fill="#61615E"/>
<path d="M419.312 307.973C419.312 306.4 419.869 305.16 420.983 304.254C422.108 303.337 423.634 302.879 425.562 302.879C427.489 302.879 429.009 303.337 430.124 304.254C431.249 305.16 431.812 306.4 431.812 307.973C431.812 308.462 431.681 308.941 431.421 309.41C431.171 309.879 430.864 310.275 430.499 310.598C430.134 310.91 429.77 311.197 429.405 311.457C429.041 311.707 428.728 311.889 428.468 312.004L428.093 312.191C428.207 312.243 428.358 312.322 428.546 312.426C428.733 312.53 429.067 312.759 429.546 313.113C430.036 313.457 430.468 313.822 430.843 314.207C431.218 314.582 431.556 315.066 431.858 315.66C432.161 316.254 432.312 316.853 432.312 317.457C432.312 319.29 431.707 320.738 430.499 321.801C429.291 322.853 427.645 323.379 425.562 323.379C423.478 323.379 421.832 322.853 420.624 321.801C419.416 320.738 418.812 319.29 418.812 317.457C418.812 316.853 418.957 316.259 419.249 315.676C419.541 315.082 419.89 314.587 420.296 314.191C420.713 313.785 421.124 313.426 421.53 313.113C421.947 312.801 422.301 312.566 422.593 312.41L423.03 312.191C422.926 312.15 422.791 312.087 422.624 312.004C422.457 311.921 422.161 311.738 421.733 311.457C421.306 311.176 420.926 310.884 420.593 310.582C420.27 310.28 419.973 309.895 419.702 309.426C419.442 308.947 419.312 308.462 419.312 307.973ZM421.968 307.973C421.968 308.337 422.088 308.697 422.327 309.051C422.577 309.395 422.879 309.686 423.233 309.926C423.588 310.165 423.942 310.384 424.296 310.582C424.65 310.77 424.947 310.91 425.187 311.004L425.562 311.129C425.614 311.108 425.681 311.082 425.765 311.051C425.848 311.02 426.015 310.952 426.265 310.848C426.515 310.733 426.754 310.618 426.983 310.504C427.213 310.379 427.463 310.223 427.733 310.035C428.015 309.848 428.254 309.655 428.452 309.457C428.65 309.259 428.817 309.03 428.952 308.77C429.088 308.509 429.155 308.243 429.155 307.973C429.155 307.16 428.832 306.52 428.187 306.051C427.541 305.572 426.666 305.332 425.562 305.332C424.457 305.332 423.582 305.572 422.937 306.051C422.291 306.52 421.968 307.16 421.968 307.973ZM425.562 313.254C425.509 313.275 425.431 313.306 425.327 313.348C425.233 313.389 425.041 313.483 424.749 313.629C424.468 313.775 424.197 313.931 423.937 314.098C423.687 314.254 423.4 314.462 423.077 314.723C422.765 314.973 422.494 315.228 422.265 315.488C422.046 315.749 421.858 316.056 421.702 316.41C421.546 316.754 421.468 317.103 421.468 317.457C421.468 318.447 421.832 319.233 422.562 319.816C423.301 320.389 424.301 320.676 425.562 320.676C426.822 320.676 427.817 320.389 428.546 319.816C429.286 319.233 429.655 318.447 429.655 317.457C429.655 316.978 429.515 316.504 429.233 316.035C428.952 315.566 428.608 315.171 428.202 314.848C427.806 314.525 427.405 314.238 426.999 313.988C426.603 313.738 426.265 313.556 425.983 313.441L425.562 313.254ZM436.624 305.629C437.832 303.796 439.478 302.879 441.562 302.879C443.645 302.879 445.291 303.796 446.499 305.629C447.707 307.462 448.312 309.962 448.312 313.129C448.312 316.296 447.707 318.796 446.499 320.629C445.291 322.462 443.645 323.379 441.562 323.379C439.478 323.379 437.832 322.462 436.624 320.629C435.416 318.796 434.812 316.296 434.812 313.129C434.812 309.962 435.416 307.462 436.624 305.629ZM444.468 307.426C443.759 306.03 442.791 305.332 441.562 305.332C440.332 305.332 439.364 306.03 438.655 307.426C437.947 308.822 437.593 310.723 437.593 313.129C437.593 315.535 437.947 317.436 438.655 318.832C439.364 320.228 440.332 320.926 441.562 320.926C442.791 320.926 443.759 320.228 444.468 318.832C445.176 317.436 445.53 315.535 445.53 313.129C445.53 310.723 445.176 308.822 444.468 307.426ZM440.233 311.129H442.89V315.129H440.233V311.129ZM452.624 305.629C453.832 303.796 455.478 302.879 457.562 302.879C459.645 302.879 461.291 303.796 462.499 305.629C463.707 307.462 464.312 309.962 464.312 313.129C464.312 316.296 463.707 318.796 462.499 320.629C461.291 322.462 459.645 323.379 457.562 323.379C455.478 323.379 453.832 322.462 452.624 320.629C451.416 318.796 450.812 316.296 450.812 313.129C450.812 309.962 451.416 307.462 452.624 305.629ZM460.468 307.426C459.759 306.03 458.791 305.332 457.562 305.332C456.332 305.332 455.364 306.03 454.655 307.426C453.947 308.822 453.593 310.723 453.593 313.129C453.593 315.535 453.947 317.436 454.655 318.832C455.364 320.228 456.332 320.926 457.562 320.926C458.791 320.926 459.759 320.228 460.468 318.832C461.176 317.436 461.53 315.535 461.53 313.129C461.53 310.723 461.176 308.822 460.468 307.426ZM456.233 311.129H458.89V315.129H456.233V311.129Z" fill="#61615E"/>
<path d="M86.5125 100.607C86.5125 47.0559 129.924 3.64436 183.475 3.64436H321.761V243.643H86.5125V100.607Z" stroke="#61615E" stroke-width="2.44497"/>
<path d="M86.3114 100.341C86.3114 46.7904 129.723 3.37874 183.274 3.37874H321.934V52.0915H181.661C154.85 52.0915 133.115 73.8262 133.115 100.637V244.07H86.3114V100.341Z" stroke="#61615E" stroke-width="2.44497"/>
<path d="M557.576 100.607C557.576 47.0559 514.165 3.64436 460.614 3.64436H322.328V243.643H557.576V100.607Z" stroke="#61615E" stroke-width="2.44497"/>
<path d="M557.778 100.341C557.778 46.7904 514.366 3.37874 460.815 3.37874H322.155V52.0915H462.428C489.239 52.0915 510.974 73.8262 510.974 100.637V244.07H557.778V100.341Z" stroke="#61615E" stroke-width="2.44497"/>
</svg>
