<svg width="504" height="368" viewBox="0 0 504 368" fill="none" xmlns="http://www.w3.org/2000/svg">
<g opacity="0.6">
<path d="M108.06 264.921L108.06 4.08682L499.895 4.08683L499.895 264.921L108.06 264.921Z" stroke="#1A1B1C" stroke-width="3.16583"/>
<path d="M108.06 264.921L108.06 4.08682L172.895 4.08682L172.895 264.921L108.06 264.921Z" stroke="#1A1B1C" stroke-width="3.16583"/>
<path d="M181.478 316.504L501.478 316.504" stroke="#1A1B1C" stroke-width="3.16583" stroke-linecap="round"/>
<path d="M106.478 316.504L174.478 316.504" stroke="#1A1B1C" stroke-width="3.16583" stroke-linecap="round"/>
<path d="M63.4775 2.50391L63.4776 266.504" stroke="#1A1B1C" stroke-width="3.16583" stroke-linecap="round"/>
<path d="M4 150.504L4 147.473L11.7969 151.785C11.7656 151.379 11.75 150.952 11.75 150.504C11.75 148.577 12.3125 147.056 13.4375 145.941C14.5521 144.816 16.0729 144.254 18 144.254C19.9271 144.254 21.4531 144.816 22.5781 145.941C23.6927 147.056 24.25 148.577 24.25 150.504C24.25 152.431 23.6927 153.957 22.5781 155.082C21.4531 156.197 19.9271 156.754 18 156.754C16.2187 156.754 14.8698 156.504 13.9531 156.004L4 150.504ZM14.2031 150.504C14.2031 151.858 14.4792 152.796 15.0312 153.316C15.5833 153.837 16.5729 154.098 18 154.098C19.1771 154.098 20.1042 153.775 20.7812 153.129C21.4583 152.483 21.7969 151.608 21.7969 150.504C21.7969 149.4 21.4583 148.525 20.7812 147.879C20.1042 147.233 19.1771 146.91 18 146.91C16.8229 146.91 15.8958 147.233 15.2187 147.879C14.5417 148.525 14.2031 149.4 14.2031 150.504ZM6.5 139.441C4.66667 138.233 3.75 136.587 3.75 134.504C3.75 132.421 4.66667 130.775 6.5 129.566C8.33333 128.358 10.8333 127.754 14 127.754C17.1667 127.754 19.6667 128.358 21.5 129.566C23.3333 130.775 24.25 132.421 24.25 134.504C24.25 136.587 23.3333 138.233 21.5 139.441C19.6667 140.65 17.1667 141.254 14 141.254C10.8333 141.254 8.33333 140.65 6.5 139.441ZM8.29687 131.598C6.90104 132.306 6.20312 133.275 6.20312 134.504C6.20312 135.733 6.90104 136.702 8.29687 137.41C9.69271 138.118 11.5937 138.473 14 138.473C16.4062 138.473 18.3073 138.118 19.7031 137.41C21.099 136.702 21.7969 135.733 21.7969 134.504C21.7969 133.275 21.099 132.306 19.7031 131.598C18.3073 130.889 16.4062 130.535 14 130.535C11.5937 130.535 9.69271 130.889 8.29687 131.598ZM12 135.832L12 133.176L16 133.176L16 135.832L12 135.832ZM6.5 123.441C4.66667 122.233 3.75 120.587 3.75 118.504C3.75 116.421 4.66666 114.775 6.5 113.566C8.33333 112.358 10.8333 111.754 14 111.754C17.1667 111.754 19.6667 112.358 21.5 113.566C23.3333 114.775 24.25 116.421 24.25 118.504C24.25 120.587 23.3333 122.233 21.5 123.441C19.6667 124.65 17.1667 125.254 14 125.254C10.8333 125.254 8.33333 124.65 6.5 123.441ZM8.29687 115.598C6.90104 116.306 6.20312 117.275 6.20312 118.504C6.20312 119.733 6.90104 120.702 8.29687 121.41C9.69271 122.118 11.5937 122.473 14 122.473C16.4062 122.473 18.3073 122.118 19.7031 121.41C21.099 120.702 21.7969 119.733 21.7969 118.504C21.7969 117.275 21.099 116.306 19.7031 115.598C18.3073 114.889 16.4062 114.535 14 114.535C11.5937 114.535 9.69271 114.889 8.29687 115.598ZM12 119.832L12 117.176L16 117.176L16 119.832L12 119.832Z" fill="#1A1B1C"/>
<path d="M331.5 339.156V341.609L325 359.156H322.172L328.672 341.609H318.5V339.156H331.5ZM338.156 341.609V346.703H341C342.927 346.703 344.448 347.182 345.562 348.141C346.688 349.089 347.25 350.385 347.25 352.031C347.25 353.365 347.052 354.505 346.656 355.453C346.271 356.401 345.698 357.151 344.938 357.703C344.177 358.255 343.281 358.656 342.25 358.906C341.229 359.156 340.036 359.281 338.672 359.281C338.005 359.281 337.365 359.26 336.75 359.219C336.135 359.177 335.688 359.135 335.406 359.094L335 359.031V356.703H338.672C340.599 356.703 342.068 356.344 343.078 355.625C344.089 354.906 344.594 353.708 344.594 352.031C344.594 351.146 344.271 350.448 343.625 349.938C342.99 349.417 342.115 349.156 341 349.156H335.5V339.156H346.5V341.609H338.156ZM352.062 341.656C353.271 339.823 354.917 338.906 357 338.906C359.083 338.906 360.729 339.823 361.938 341.656C363.146 343.49 363.75 345.99 363.75 349.156C363.75 352.323 363.146 354.823 361.938 356.656C360.729 358.49 359.083 359.406 357 359.406C354.917 359.406 353.271 358.49 352.062 356.656C350.854 354.823 350.25 352.323 350.25 349.156C350.25 345.99 350.854 343.49 352.062 341.656ZM359.906 343.453C359.198 342.057 358.229 341.359 357 341.359C355.771 341.359 354.802 342.057 354.094 343.453C353.385 344.849 353.031 346.75 353.031 349.156C353.031 351.562 353.385 353.464 354.094 354.859C354.802 356.255 355.771 356.953 357 356.953C358.229 356.953 359.198 356.255 359.906 354.859C360.615 353.464 360.969 351.562 360.969 349.156C360.969 346.75 360.615 344.849 359.906 343.453ZM355.672 347.156H358.328V351.156H355.672V347.156Z" fill="#1A1B1C"/>
<path d="M120.306 340.195C121.368 339.133 122.759 338.602 124.478 338.602C126.196 338.602 127.582 339.133 128.634 340.195C129.696 341.258 130.228 342.539 130.228 344.039C130.228 344.435 130.165 344.836 130.04 345.242C129.915 345.648 129.774 346.018 129.618 346.352C129.462 346.674 129.196 347.096 128.821 347.617C128.457 348.128 128.139 348.549 127.868 348.883C127.608 349.216 127.191 349.727 126.618 350.414L121.665 356.398H130.478V358.852H118.478V356.398L124.728 348.852C125.457 347.966 125.978 347.32 126.29 346.914C126.613 346.497 126.905 346.023 127.165 345.492C127.436 344.961 127.571 344.477 127.571 344.039C127.571 343.299 127.28 342.617 126.696 341.992C126.123 341.367 125.384 341.055 124.478 341.055C123.571 341.055 122.826 341.367 122.243 341.992C121.67 342.617 121.384 343.299 121.384 344.039H118.728C118.728 342.539 119.254 341.258 120.306 340.195ZM135.54 341.352C136.748 339.518 138.394 338.602 140.478 338.602C142.561 338.602 144.207 339.518 145.415 341.352C146.623 343.185 147.228 345.685 147.228 348.852C147.228 352.018 146.623 354.518 145.415 356.352C144.207 358.185 142.561 359.102 140.478 359.102C138.394 359.102 136.748 358.185 135.54 356.352C134.332 354.518 133.728 352.018 133.728 348.852C133.728 345.685 134.332 343.185 135.54 341.352ZM143.384 343.148C142.675 341.753 141.707 341.055 140.478 341.055C139.248 341.055 138.28 341.753 137.571 343.148C136.863 344.544 136.509 346.445 136.509 348.852C136.509 351.258 136.863 353.159 137.571 354.555C138.28 355.951 139.248 356.648 140.478 356.648C141.707 356.648 142.675 355.951 143.384 354.555C144.092 353.159 144.446 351.258 144.446 348.852C144.446 346.445 144.092 344.544 143.384 343.148ZM139.149 346.852H141.806V350.852H139.149V346.852ZM151.54 341.352C152.748 339.518 154.394 338.602 156.478 338.602C158.561 338.602 160.207 339.518 161.415 341.352C162.623 343.185 163.228 345.685 163.228 348.852C163.228 352.018 162.623 354.518 161.415 356.352C160.207 358.185 158.561 359.102 156.478 359.102C154.394 359.102 152.748 358.185 151.54 356.352C150.332 354.518 149.728 352.018 149.728 348.852C149.728 345.685 150.332 343.185 151.54 341.352ZM159.384 343.148C158.675 341.753 157.707 341.055 156.478 341.055C155.248 341.055 154.28 341.753 153.571 343.148C152.863 344.544 152.509 346.445 152.509 348.852C152.509 351.258 152.863 353.159 153.571 354.555C154.28 355.951 155.248 356.648 156.478 356.648C157.707 356.648 158.675 355.951 159.384 354.555C160.092 353.159 160.446 351.258 160.446 348.852C160.446 346.445 160.092 344.544 159.384 343.148ZM155.149 346.852H157.806V350.852H155.149V346.852Z" fill="#1A1B1C"/>
</g>
</svg>
